<?xml version="1.0" encoding="utf-8"?>
<!-- Generator: Adobe Illustrator 24.1.2, SVG Export Plug-In . SVG Version: 6.00 Build 0)  -->
<svg version="1.2" baseProfile="tiny" id="Слой_1"
	 xmlns="http://www.w3.org/2000/svg" xmlns:xlink="http://www.w3.org/1999/xlink" x="0px" y="0px" width="382.5px" height="33.2px"
	 viewBox="0 0 382.5 33.2" overflow="visible" xml:space="preserve">
<g>
	<path fill="#F6AE00" d="M-0.1,25.4h2.6c1.2-2.5,2-5.4,2.6-8.6s0.8-7.3,0.8-12V0.6h18.7v24.8h3.7l-0.7,7.8h-4.2V30H4.6l-0.4,3.2H0
		v-7.8H-0.1z M7.6,25.4h12.3V5.3h-9.4v3.4C10.5,15.5,9.5,21,7.6,25.4z"/>
	<path fill="#F6AE00" d="M29.7,29.8l0.5-4.2c0.4,0.1,1,0.2,1.5,0.2c0.4,0,0.8-0.1,1.1-0.2s0.7-0.3,1.1-0.6c0.4-0.3,0.7-0.8,1-1.3
		c0.3-0.6,0.6-1.3,0.8-2.3c0.3-1,0.5-2.1,0.7-3.5c0.2-1.3,0.3-3,0.4-5c0.1-2,0.1-4.2,0.1-6.6V0.5h18.4v29.4h-4.7V5.3h-9.2v2.6
		c0,3.7-0.1,6.8-0.4,9.5c-0.3,2.6-0.6,4.8-1.1,6.5s-1,3-1.8,3.9c-0.7,1-1.5,1.6-2.3,2s-1.8,0.5-2.9,0.5
		C31.9,30.3,30.8,30.1,29.7,29.8z"/>
	<path fill="#F6AE00" d="M59,29.9l7.3-11.1c-1.9-0.6-3.5-1.6-4.6-3.2c-1.1-1.5-1.7-3.5-1.7-5.8c0-2.9,0.9-5.2,2.7-6.9
		c1.8-1.7,4.2-2.5,7.3-2.5h11.8v29.4h-4.6v-10h-5.9L64.7,30H59V29.9z M64.6,10.3c0,1.5,0.5,2.7,1.5,3.7c1,0.9,2.3,1.4,4,1.4H77v-10
		h-6.8c-1.8,0-3.1,0.4-4.1,1.3C65.1,7.4,64.6,8.7,64.6,10.3z"/>
	<path fill="#F6AE00" d="M95.7,25.4h2.6c1.2-2.5,2-5.4,2.6-8.6s0.8-7.3,0.8-12V0.6h18.6v24.8h3.7l-0.7,7.8h-4.2V30h-18.8l-0.4,3.2
		h-4.2C95.7,33.2,95.7,25.4,95.7,25.4z M103.4,25.4h12.3V5.3h-9.4v3.4C106.3,15.5,105.4,21,103.4,25.4z"/>
	<path fill="#F6AE00" d="M125.3,15.2c0-2.1,0.3-4,1-5.9s1.6-3.5,2.9-4.8c1.2-1.4,2.7-2.5,4.4-3.3s3.6-1.2,5.6-1.2s3.9,0.4,5.6,1.2
		s3.2,1.9,4.4,3.3s2.2,3,2.8,4.8c0.7,1.9,1,3.8,1,5.9c0,2-0.3,4-1,5.9s-1.6,3.5-2.9,4.8s-2.7,2.5-4.5,3.3s-3.6,1.2-5.6,1.2
		c-2.7,0-5.1-0.7-7.2-2.1c-2.1-1.4-3.8-3.2-4.9-5.5C125.9,20.6,125.3,18,125.3,15.2z M130.2,15.2c0,1.9,0.4,3.7,1.1,5.3
		c0.8,1.6,1.8,2.9,3.2,3.8s3,1.4,4.7,1.4s3.3-0.5,4.7-1.4s2.5-2.2,3.2-3.8c0.8-1.6,1.1-3.4,1.1-5.3s-0.4-3.7-1.2-5.3
		s-1.9-2.9-3.2-3.8c-1.4-0.9-3-1.4-4.7-1.4s-3.3,0.5-4.7,1.4s-2.4,2.2-3.2,3.8C130.6,11.6,130.2,13.3,130.2,15.2z"/>
	<path fill="#F6AE00" d="M157.6,29.9V0.5h5l8.1,13.9l8.1-13.9h5v29.4h-4.7v-21l-8.4,13.9h-0.1L162.2,9v21h-4.6L157.6,29.9
		L157.6,29.9z"/>
	<path fill="#F6AE00" d="M187.4,29.9l11.7-29.6h4.4l11.7,29.6h-4.9l-2.7-7.1H195l-2.8,7.1H187.4z M196.6,18.3h9.2l-4.6-11.8
		L196.6,18.3z"/>
	<path fill="#F6AE00" d="M229.9,29.9V0.5h4.6V22L248,0.5h4.4v29.4h-4.6V8.5l-13.4,21.4H229.9z"/>
	<path fill="#F6AE00" d="M268.3,15.2c0-2.1,0.3-4,1-5.9s1.6-3.5,2.8-4.8c1.2-1.4,2.6-2.5,4.4-3.3c1.7-0.8,3.6-1.2,5.5-1.2
		c2.3,0,4.3,0.4,5.9,1.2s3.1,1.9,4.5,3.4l-3,3.8c-1.2-1.2-2.3-2.1-3.5-2.7s-2.5-0.9-3.9-0.9c-1.7,0-3.2,0.5-4.5,1.4
		c-1.4,0.9-2.4,2.2-3.2,3.8c-0.8,1.6-1.1,3.4-1.1,5.3c0,2.9,0.8,5.4,2.5,7.4s3.8,3.1,6.3,3.1c1.5,0,2.9-0.3,4-0.9
		c1.2-0.6,2.4-1.6,3.6-2.9l3,3.4c-1,1.1-2,2-2.9,2.8c-1,0.7-2.1,1.3-3.5,1.7c-1.3,0.4-2.8,0.7-4.4,0.7c-2.5,0-4.9-0.7-6.9-2
		s-3.7-3.2-4.9-5.5C268.9,20.6,268.3,18.1,268.3,15.2z"/>
	<path fill="#F6AE00" d="M294.5,29.9l11.7-29.6h4.4l11.7,29.6h-4.9l-2.7-7.1h-12.6l-2.8,7.1H294.5z M303.8,18.3h9.2l-4.6-11.8
		L303.8,18.3z"/>
	<path fill="#F6AE00" d="M324.4,25.4h2.6c1.2-2.5,2-5.4,2.6-8.6s0.8-7.3,0.8-12V0.6H349v24.8h3.7l-0.7,7.8h-4.2V30H329l-0.4,3.2
		h-4.2V25.4z M332.1,25.4h12.3V5.3H335v3.4C335,15.5,334,21,332.1,25.4z"/>
	<path fill="#F6AE00" d="M354.7,29.9l11.7-29.6h4.4l11.7,29.6h-4.9l-2.7-7.1h-12.6l-2.8,7.1H354.7z M363.9,18.3h9.2l-4.6-11.8
		L363.9,18.3z"/>
</g>
</svg>
