<svg xmlns="http://www.w3.org/2000/svg" xml:space="preserve" width="29.9815mm" height="2.9164mm" version="1.1" style="shape-rendering:geometricPrecision; text-rendering:geometricPrecision; image-rendering:optimizeQuality; fill-rule:evenodd; clip-rule:evenodd"
viewBox="0 0 394.36 38.36"
 xmlns:xlink="http://www.w3.org/1999/xlink">
 <defs>
  <style type="text/css">
   <![CDATA[
    .fil0 {fill:#F5AD01;fill-rule:nonzero}
   ]]>
  </style>
 </defs>
 <g id="Слой_x0020_1">
  <metadata id="CorelCorpID_0Corel-Layer"/>
  <path class="fil0" d="M22.25 26.56l-13.03 0c2.04,-3.06 3.04,-8.17 3.04,-15.42l0 -5.37 9.99 0 0 20.8zm5.72 0l0 -25.91 -21.2 0 0 10.53c0,4.19 0,12.63 -4.18,15.38l-2.59 0 0 11.8 5.54 0 0 -6.68 20.75 0 0 6.68 5.58 0 0 -11.8 -3.9 0zm10.11 -25.91l0 10.79c0,4.89 -0.59,8.74 -1.23,10.75 -0.64,2.18 -1.95,3.98 -4.13,4.94l-1.59 0.74 2.59 4.85 1.36 -0.66c2.04,-0.96 3.27,-1.62 4.9,-3.67 3.31,-4.06 3.68,-12.15 3.68,-16.95l0 -5.68 9.63 0 0 25.91 5.72 0 0 -31.02 -20.93 0zm30.86 9.61c0,-2.93 1.68,-4.5 4.77,-4.5l7.86 0 0 9 -7.86 0c-3,0 -4.77,-1.57 -4.77,-4.5zm-1.32 10.44l-5.95 10.97 6.63 0c0,0 4.63,-9 4.68,-9.09 1.14,-2.14 2.27,-2.71 5.22,-2.71l3.36 0 0 11.8 5.72 0 0 -31.02 -14.12 0c-6.36,0 -10.21,3.63 -10.21,9.61 0,4.5 2.18,7.6 5.99,8.83 -0.5,0.39 -0.91,0.92 -1.32,1.62zm54.65 5.85l-13.03 0c2.04,-3.06 3.04,-8.17 3.04,-15.42l0 -5.37 9.99 0 0 20.8zm5.72 0l0 -25.91 -21.2 0 0 10.53c0,4.19 0,12.63 -4.18,15.38l-2.59 0 0 11.8 5.54 0 0 -6.68 20.75 0 0 6.68 5.58 0 0 -11.8 -3.9 0zm5.75 -5.64c0,7.12 4.68,11.4 12.98,11.4 8.22,0 12.94,-4.28 12.94,-11.4l0 -9.53c0,-7.12 -4.72,-11.4 -12.94,-11.4 -8.31,0 -12.98,4.28 -12.98,11.4l0 9.53zm20.25 0.04c0,4.02 -2.59,6.25 -7.26,6.25 -4.68,0 -7.26,-2.18 -7.26,-6.25l0 -9.61c0,-4.06 2.59,-6.25 7.26,-6.25 4.68,0 7.26,2.23 7.26,6.25l0 9.61zm35.17 -20.32l-10.12 17.39 -10.13 -17.39 -5.08 0 0 31.02 5.31 0 0 -20.36 8.04 13.46 3.72 0 8.04 -13.63 0 20.53 5.4 0 0 -31.02 -5.18 0zm24.73 0l-5.27 0 -12.39 31.02 6.04 0 2.59 -6.95 12.58 0 2.54 6.95 6.31 0 -12.39 -31.02zm-7.36 19.57l4.63 -12.42 4.59 12.42 -9.22 0zm31.72 11.45l5.13 0 14.62 -20.84 0 20.84 5.54 0 0 -31.02 -5.18 0 -14.62 20.84 0 -20.84 -5.49 0 0 31.02zm59.92 -9.92l-0.54 1.4c-1.04,2.71 -3.36,4.06 -6.95,4.06 -4.68,0 -7.26,-2.23 -7.26,-6.25l0 -9.66c0,-4.02 2.59,-6.2 7.26,-6.2 3.63,0 5.95,1.35 6.95,4.02l0.5 1.4 5.45 -1.79 -0.54 -1.44c-1.77,-4.85 -5.9,-7.3 -12.35,-7.3 -8.31,0 -12.98,4.32 -12.98,11.36l0 9.57c0,7.12 4.68,11.4 12.98,11.4 6.45,0 10.58,-2.45 12.39,-7.3l0.5 -1.44 -5.4 -1.83zm22.73 -21.1l-5.27 0 -12.39 31.02 6.04 0 2.59 -6.95 12.58 0 2.54 6.95 6.31 0 -12.39 -31.02zm-7.36 19.57l4.63 -12.42 4.59 12.42 -9.22 0zm41.57 6.34l-13.03 0c2.04,-3.06 3.04,-8.17 3.04,-15.42l0 -5.37 9.99 0 0 20.8zm5.72 0l0 -25.91 -21.2 0 0 10.53c0,4.19 0,12.63 -4.18,15.38l-2.59 0 0 11.8 5.54 0 0 -6.68 20.75 0 0 6.68 5.58 0 0 -11.8 -3.9 0zm21.1 -25.91l-5.27 0 -12.39 31.02 6.04 0 2.59 -6.95 12.58 0 2.54 6.95 6.31 0 -12.39 -31.02zm-7.35 19.57l4.63 -12.42 4.59 12.42 -9.22 0z"/>
 </g>
</svg>
